<svg xmlns="http://www.w3.org/2000/svg" version="1.1" xmlns:xlink="http://www.w3.org/1999/xlink" xmlns:svgjs="http://svgjs.com/svgjs" width="1440" height="560" preserveAspectRatio="none" viewBox="0 0 1440 560"><g mask="url(&quot;#SvgjsMask1027&quot;)" fill="none"><rect width="1440" height="560" x="0" y="0" fill="url(#SvgjsLinearGradient1028)"></rect><path d="M1560 560L0 560 L0 329.45Q55.25 264.7, 120 319.96Q208.49 288.44, 240 376.93Q292.31 309.25, 360 361.56Q406.28 287.84, 480 334.12Q496.69 278.81, 552 295.5Q624.51 248.01, 672 320.52Q722.36 298.88, 744 349.24Q751.25 284.5, 816 291.75Q882.82 238.57, 936 305.39Q977.78 275.17, 1008 316.96Q1074.41 263.38, 1128 329.79Q1171.05 300.84, 1200 343.88Q1246.56 270.44, 1320 316.99Q1408.06 285.05, 1440 373.1Q1485.74 298.84, 1560 344.57z" fill="rgba(25, 93, 24, 1)"></path><path d="M1512 560L0 560 L0 377.95Q32.97 338.92, 72 371.9Q166.38 346.28, 192 440.67Q231.11 359.78, 312 398.9Q331.6 346.5, 384 366.09Q425.16 335.25, 456 376.4Q508.66 357.06, 528 409.72Q542.31 352.04, 600 366.35Q629.17 323.52, 672 352.7Q726.75 335.45, 744 390.21Q791.02 317.23, 864 364.24Q920.87 349.11, 936 405.97Q990.58 340.55, 1056 395.12Q1117.28 384.4, 1128 445.69Q1178.69 376.38, 1248 427.08Q1252.55 359.63, 1320 364.18Q1349.55 321.73, 1392 351.27Q1494.28 333.55, 1512 435.83z" fill="rgba(195, 190, 40, 1)"></path><path d="M1536 560L0 560 L0 461.18Q28.56 417.75, 72 446.31Q122.53 376.84, 192 427.37Q284.88 400.25, 312 493.12Q329.74 438.86, 384 456.59Q436.69 389.27, 504 441.96Q579.69 397.65, 624 473.34Q653.51 430.86, 696 460.37Q721.99 414.36, 768 440.35Q795.49 395.84, 840 423.32Q893.27 404.59, 912 457.86Q961.4 435.26, 984 484.67Q1019.18 399.85, 1104 435.03Q1176.09 387.12, 1224 459.21Q1253.71 416.92, 1296 446.63Q1379.24 409.87, 1416 493.11Q1462.33 419.44, 1536 465.76z" fill="#356cb1"></path><path d="M1488 560L0 560 L0 559.69Q5.1 492.79, 72 497.89Q138.22 492.11, 144 558.32Q213.99 508.31, 264 578.29Q288.27 482.56, 384 506.83Q427.55 478.38, 456 521.93Q537.8 483.73, 576 565.53Q621.82 491.35, 696 537.17Q719.72 488.89, 768 512.61Q852.52 477.13, 888 561.66Q888.66 490.32, 960 490.98Q1034.32 493.3, 1032 567.61Q1076.05 539.65, 1104 583.7Q1144.14 503.84, 1224 543.98Q1234.92 482.9, 1296 493.83Q1365.95 443.78, 1416 513.73Q1482.18 507.91, 1488 574.09z" fill="rgba(105, 8, 103, 1)"></path></g><defs><mask id="SvgjsMask1027"><rect width="1440" height="560" fill="#ffffff"></rect></mask><linearGradient x1="15.28%" y1="-39.29%" x2="84.72%" y2="139.29%" gradientUnits="userSpaceOnUse" id="SvgjsLinearGradient1028"><stop stop-color="#0e2a47" offset="0"></stop><stop stop-color="rgba(32, 62, 101, 1)" offset="1"></stop></linearGradient></defs></svg>